<?xml version="1.0" encoding="iso-8859-1"?>
<!-- Uploaded to: SVG Repo, www.svgrepo.com, Generator: SVG Repo Mixer Tools -->
<svg height="800px" width="800px" version="1.1" id="Layer_1" xmlns="http://www.w3.org/2000/svg" xmlns:xlink="http://www.w3.org/1999/xlink" 
	 viewBox="0 0 512 512" xml:space="preserve">
<g>
	<path style="fill:#74CBB4;" d="M413.183,55.644v42.202h-46.423H134.646V91.98c0-20.061,16.277-36.336,36.336-36.336h195.778
		H413.183z"/>
	<path style="fill:#74CBB4;" d="M366.761,12.033v43.609H170.983c-20.061,0-36.336,16.277-36.336,36.336v5.866h-5.626
		c-23.704,0-42.906-19.216-42.906-42.906c0-11.845,4.796-22.564,12.562-30.329s18.499-12.576,30.344-12.576
		C129.02,12.033,366.761,12.033,366.761,12.033z"/>
</g>
<path style="fill:#82DCC7;" d="M86.113,54.94c0,23.689,19.202,42.906,42.906,42.906h5.626h232.114h46.423h21.101h25.322v56.271
	H86.113V68.304V54.94z"/>
<path style="fill:#F64B4A;" d="M503.919,176.484v301.327c0,12.352-10.016,22.367-22.367,22.367H53.054
	c-1.181,0-2.349-0.043-3.517-0.141c-10.438-0.845-19.835-5.444-26.827-12.435c-7.765-7.765-12.562-18.485-12.562-30.329V111.21
	c0,0.239,0,0.464,0.015,0.704c0.351,22.185,17.556,40.289,39.376,42.062c1.168,0.098,2.336,0.141,3.517,0.141h428.497
	C493.903,154.117,503.919,164.132,503.919,176.484z"/>
<g>
	<path style="fill:#E84242;" d="M49.537,111.913v388.124c-10.438-0.845-19.835-5.444-26.827-12.435
		c-7.765-7.765-12.562-18.485-12.562-30.329V111.913H49.537z"/>
	<path style="fill:#E84242;" d="M86.113,68.304v85.813H72.046H53.054c-23.704,0-42.906-19.216-42.906-42.906
		c0-11.845,4.796-22.564,12.562-30.329s18.499-12.576,30.344-12.576h33.059V68.304z"/>
</g>
<circle style="fill:#FED159;" cx="401.229" cy="320.113" r="47.831"/>
<path style="fill:#F6C454;" d="M380.737,320.111c0-21.664,14.406-39.954,34.16-45.837c-4.332-1.291-8.918-1.993-13.671-1.993
	c-26.415,0-47.83,21.415-47.83,47.83s21.415,47.83,47.83,47.83c4.752,0,9.338-0.702,13.671-1.993
	C395.143,360.065,380.737,341.774,380.737,320.111z"/>
<path d="M480.512,144.896H94.194v-50.56c9.098,7.794,20.901,12.519,33.792,12.519h209.238c5.033,0,9.114-4.081,9.114-9.114
	s-4.081-9.114-9.114-9.114H142.927c1.611-13.484,13.111-23.974,27.022-23.974h233.088v23.974h-37.31
	c-5.033,0-9.114,4.081-9.114,9.114s4.081,9.114,9.114,9.114h83.732v13.394c0,5.033,4.081,9.114,9.114,9.114
	c5.033,0,9.114-4.081,9.114-9.114V97.74c0-5.033-4.081-9.114-9.114-9.114h-37.308V55.537c0-5.033-4.081-9.114-9.114-9.114h-37.31
	V11.927c0-5.033-4.081-9.114-9.114-9.114H127.985c-13.891,0-26.957,5.415-36.788,15.246c-9.823,9.823-15.232,22.883-15.232,36.774
	v90.062H52.879c-18.69,0-34.23-14.806-34.641-33.005c-0.21-9.326,3.299-18.087,9.883-24.671c6.388-6.388,14.877-9.906,23.9-9.906
	c5.033,0,9.114-4.081,9.114-9.114s-4.081-9.114-9.114-9.114c-13.892,0-26.957,5.415-36.788,15.246
	C5.458,84.104,0.1,96.993,0.017,110.764C0.013,110.878,0,110.99,0,111.104v346.062c0,13.892,5.409,26.952,15.232,36.774
	c9.831,9.831,22.896,15.246,36.788,15.246h55.527c5.033,0,9.114-4.081,9.114-9.114s-4.081-9.114-9.114-9.114H52.02
	c-9.023,0-17.51-3.518-23.9-9.908c-6.379-6.377-9.892-14.861-9.892-23.884V150.244c9.323,8.005,21.471,12.881,34.651,12.881h427.633
	c7.312,0,13.259,5.949,13.259,13.259v301.315c0,7.311-5.948,13.259-13.259,13.259h-341.37c-5.033,0-9.114,4.081-9.114,9.114
	c0,5.033,4.081,9.114,9.114,9.114h341.37c17.363,0,31.488-14.126,31.488-31.488V176.384
	C512,159.021,497.874,144.896,480.512,144.896z M104.086,30.949c6.388-6.388,14.877-9.908,23.9-9.908h228.628v25.381H169.948
	c-23.912,0-43.556,18.565-45.309,42.036c-17.068-1.686-30.446-16.121-30.446-33.625C94.193,45.811,97.706,37.328,104.086,30.949z"/>
<path d="M400.191,281.289c11.982,0,23.099,5.417,30.5,14.865c3.106,3.964,8.835,4.658,12.795,1.554
	c3.963-3.104,4.658-8.832,1.554-12.795c-10.879-13.888-27.226-21.852-44.849-21.852c-31.399,0-56.944,25.545-56.944,56.944
	s25.545,56.944,56.944,56.944s56.944-25.545,56.944-56.944c0-5.033-4.081-9.114-9.114-9.114s-9.114,4.081-9.114,9.114
	c0,21.348-17.368,38.716-38.716,38.716s-38.716-17.368-38.716-38.716C361.476,298.657,378.844,281.289,400.191,281.289z"/>
</svg>